<svg width="19" height="18" viewBox="0 0 19 18" fill="none" xmlns="http://www.w3.org/2000/svg">
<path d="M9.5 0C14.4706 0 18.5 4.02944 18.5 9C18.5 13.9706 14.4706 18 9.5 18C4.52944 18 0.5 13.9706 0.5 9C0.5 4.02944 4.52944 0 9.5 0ZM9.49805 11.3887C9.32061 11.3887 9.15631 11.433 9.00488 11.5205C8.85571 11.6057 8.73702 11.7229 8.64941 11.8721C8.56181 12.0189 8.51912 12.1787 8.52148 12.3516C8.51912 12.5291 8.56181 12.6926 8.64941 12.8418C8.73701 12.9885 8.85576 13.1058 9.00488 13.1934C9.15629 13.2808 9.32064 13.3242 9.49805 13.3242C9.66616 13.3242 9.82544 13.281 9.97461 13.1934C10.1236 13.1058 10.2431 12.987 10.333 12.8379C10.4229 12.6888 10.4693 12.5267 10.4717 12.3516C10.4693 12.1787 10.4229 12.0188 10.333 11.8721C10.2431 11.723 10.1236 11.6057 9.97461 11.5205C9.82544 11.4329 9.66616 11.3887 9.49805 11.3887ZM8.53223 4.94043L8.70996 9.95605H10.2871L10.4639 4.94043H8.53223Z" fill="white"/>
</svg>
