<svg width="15" height="13" viewBox="0 0 15 13" fill="none" xmlns="http://www.w3.org/2000/svg">
<path d="M4.23481 6.38265C3.90905 6.38265 3.59061 6.47925 3.31975 6.66023C3.04889 6.84121 2.83779 7.09845 2.71312 7.39941C2.58846 7.70037 2.55585 8.03154 2.6194 8.35104C2.68295 8.67053 2.83982 8.96401 3.07016 9.19436C3.30051 9.4247 3.59398 9.58157 3.91348 9.64512C4.23298 9.70867 4.56415 9.67606 4.86511 9.55139C5.16607 9.42673 5.42331 9.21563 5.60429 8.94477C5.78527 8.67391 5.88187 8.35547 5.88187 8.02971C5.88187 7.59288 5.70834 7.17395 5.39945 6.86506C5.09057 6.55618 4.67163 6.38265 4.23481 6.38265ZM4.23481 8.73559C4.0952 8.73559 3.95872 8.69419 3.84264 8.61663C3.72656 8.53907 3.63608 8.42882 3.58266 8.29984C3.52923 8.17086 3.51525 8.02893 3.54249 7.892C3.56973 7.75507 3.63695 7.6293 3.73567 7.53058C3.83439 7.43186 3.96017 7.36463 4.0971 7.33739C4.23402 7.31016 4.37595 7.32413 4.50494 7.37756C4.63392 7.43099 4.74416 7.52146 4.82173 7.63754C4.89929 7.75363 4.94069 7.8901 4.94069 8.02971C4.94069 8.21692 4.86632 8.39647 4.73394 8.52884C4.60156 8.66122 4.42202 8.73559 4.23481 8.73559ZM13.6466 5.91206H12.2172C12.097 4.33381 11.3699 2.86354 10.1885 1.81017C9.00705 0.756796 7.46335 0.202322 5.8817 0.263242C4.30005 0.324163 2.80357 0.995736 1.70668 2.13686C0.609797 3.27798 -0.00211436 4.79983 -0.000485036 6.38265V7.79442C0.000760542 8.9173 0.447378 9.99384 1.24138 10.7878C2.03538 11.5818 3.11192 12.0285 4.23481 12.0297H6.58775C7.71064 12.0285 8.78718 11.5818 9.58118 10.7878C10.3752 9.99384 10.8218 8.9173 10.823 7.79442V6.85324H13.6466C13.7714 6.85324 13.8911 6.80366 13.9793 6.71541C14.0676 6.62716 14.1172 6.50746 14.1172 6.38265C14.1172 6.25784 14.0676 6.13815 13.9793 6.0499C13.8911 5.96164 13.7714 5.91206 13.6466 5.91206ZM9.88187 7.79442C9.881 8.61137 9.57691 9.39892 9.02852 10.0045C8.48014 10.61 7.7265 10.9905 6.91363 11.0721C7.40009 10.6755 7.79216 10.1756 8.06138 9.60871C8.3306 9.04178 8.47022 8.42202 8.4701 7.79442V6.85324H9.88187V7.79442ZM7.99951 5.91206C7.87471 5.91206 7.75501 5.96164 7.66676 6.0499C7.5785 6.13815 7.52892 6.25784 7.52892 6.38265V7.79442C7.52892 8.66807 7.18187 9.50594 6.5641 10.1237C5.94633 10.7415 5.10846 11.0885 4.23481 11.0885C3.36115 11.0885 2.52328 10.7415 1.90552 10.1237C1.28775 9.50594 0.940691 8.66807 0.940691 7.79442V6.38265C0.939958 5.05005 1.45317 3.7685 2.37351 2.80476C3.29385 1.84102 4.55041 1.26933 5.88163 1.2087C7.21285 1.14806 8.51617 1.60315 9.52031 2.47924C10.5244 3.35533 11.152 4.58492 11.2725 5.91206H7.99951Z" fill="white" fill-opacity="0.7"/>
</svg>
