<svg width="29" height="24" viewBox="0 0 29 24" fill="none" xmlns="http://www.w3.org/2000/svg">
<path d="M14.8568 0.050698C20.6576 0.050698 25.4934 4.22457 26.492 9.72241H27.7262C28.6126 9.72241 28.837 10.4854 28.3546 11.1249L25.5832 14.8388C25.2354 15.3212 24.6295 15.3212 24.2817 14.8388L21.5103 11.1249C21.0391 10.4854 21.2635 9.72241 22.1386 9.72241H23.4626C22.5089 5.8627 19.0307 3.00158 14.8568 3.00158C12.6464 3.00158 10.6268 3.84309 9.13456 5.22315C8.27061 5.85148 7.49643 5.62708 7.0364 5.12217C6.5315 4.54995 6.46418 3.5738 7.2608 2.9567C9.25798 1.15027 11.9284 0.050698 14.8568 0.050698ZM14.8568 23.7475C9.06724 23.7475 4.23138 19.5736 3.22158 14.0758H1.99859C1.10098 14.0758 0.876579 13.3128 1.35904 12.6733L4.14162 8.95944C4.48944 8.47698 5.08411 8.47698 5.44315 8.95944L8.20329 12.6733C8.67453 13.3128 8.46135 14.0758 7.57497 14.0758H6.251C7.2047 17.9355 10.6941 20.7966 14.8568 20.7966C17.0672 20.7966 19.0868 19.9551 20.5903 18.575C21.443 17.9467 22.2284 18.1599 22.6772 18.676C23.1821 19.2483 23.2494 20.2132 22.4528 20.8415C20.4556 22.6367 17.7852 23.7475 14.8568 23.7475Z" fill="white"/>
</svg>
